<?xml version="1.0" standalone="no"?>
<!DOCTYPE svg PUBLIC "-//W3C//DTD SVG 20010904//EN"
 "http://www.w3.org/TR/2001/REC-SVG-20010904/DTD/svg10.dtd">
<svg version="1.0" xmlns="http://www.w3.org/2000/svg"
 width="260.000000pt" height="260.000000pt" viewBox="0 0 260.000000 260.000000"
 preserveAspectRatio="xMidYMid meet">
<metadata>
Created by potrace 1.14, written by Peter Selinger 2001-2017
</metadata>
<g transform="translate(0.000000,260.000000) scale(0.100000,-0.100000)"
fill="#000000" stroke="none">
<path d="M388 2555 c-167 -48 -298 -184 -343 -356 -12 -45 -15 -201 -15 -890
0 -579 3 -854 11 -890 38 -183 185 -336 369 -383 45 -11 203 -13 910 -11 470
1 867 5 882 8 72 18 169 73 229 129 71 66 134 189 147 285 13 101 7 1691 -7
1743 -28 104 -72 181 -143 248 -55 53 -93 77 -173 110 l-60 25 -867 2 c-854 1
-869 1 -940 -20z"/>
</g>
</svg>
